Coordinates
version=1
nRows=14
nColumns=40
inDegrees=yes

Units are S.I. units (second, meters, Newtons, ...)
Angles are in degrees.

endheader
time	pelvis_tilt	pelvis_list	pelvis_rotation	pelvis_tx	pelvis_ty	pelvis_tz	hip_flexion_r	hip_adduction_r	hip_rotation_r	knee_angle_r	knee_angle_r_beta	ankle_angle_r	subtalar_angle_r	mtp_angle_r	hip_flexion_l	hip_adduction_l	hip_rotation_l	knee_angle_l	knee_angle_l_beta	ankle_angle_l	subtalar_angle_l	mtp_angle_l	lumbar_extension	lumbar_bending	lumbar_rotation	arm_flex_r	arm_add_r	arm_rot_r	elbow_flex_r	pro_sup_r	wrist_flex_r	wrist_dev_r	arm_flex_l	arm_add_l	arm_rot_l	elbow_flex_l	pro_sup_l	wrist_flex_l	wrist_dev_l
     50.25750000	     -5.37596684	     -7.24658407	     -0.04477860	      0.94345332	      0.91233294	      0.48033213	     24.72483275	      3.47367414	    -13.52866790	     24.42532702	     24.42532702	      6.85420632	     -5.67614727	     -2.61264897	     18.00485449	    -13.48870061	     -0.85845395	     56.83954923	     56.83954923	      9.38319908	    -18.87878472	      0.53267767	    -12.00316919	      7.99105439	      3.59281637	     -7.72465698	    -11.78787170	      2.30845620	     24.64502488	     46.04908582	      0.00000000	      0.00000000	     17.75348443	    -15.89881508	     -2.12526103	    102.01589425	     48.45238713	      0.00000000	      0.00000000
     50.26857143	     -5.26860493	     -7.33434994	      0.06380961	      0.94327962	      0.91357752	      0.48214741	     23.87367243	      3.66955561	    -13.80168074	     24.08490136	     24.08490136	      7.37158275	     -5.14874755	     -2.60726107	     20.15864578	    -13.64082325	      0.04877122	     60.61135077	     60.61135077	      8.57319150	    -18.89900446	      6.82676240	    -12.08889911	      7.95528333	      3.44340935	     -5.58887304	    -11.94206281	      4.00632417	     24.69656503	     45.95992265	      0.00000000	      0.00000000	     16.39297827	    -15.31870871	     -2.54576484	     99.66089553	     48.44623411	      0.00000000	      0.00000000
     50.27964286	     -5.17393471	     -7.47086866	      0.14621201	      0.94310449	      0.91478533	      0.48410043	     22.96976726	      3.97115167	    -14.01122861	     23.59580103	     23.59580103	      7.76755293	     -4.70235182	     -2.71252781	     22.09009947	    -14.02543537	      0.65668729	     63.65499710	     63.65499710	      6.30571723	    -19.04974347	      8.39665523	    -12.18200789	      7.93936619	      3.37367401	     -3.63160970	    -12.02288578	      4.30432699	     25.42312182	     45.93064715	      0.00000000	      0.00000000	     15.05972807	    -14.91203283	     -2.66548414	     97.15238942	     48.40005612	      0.00000000	      0.00000000
     50.29071429	     -5.15191990	     -7.64509937	      0.19928850	      0.94279862	      0.91583909	      0.48606482	     22.15951985	      4.34018826	    -14.15019193	     23.10317003	     23.10317003	      8.09341328	     -4.37839958	     -2.76617847	     24.04289190	    -14.42008297	      1.27938597	     66.34966427	     66.34966427	      4.23731907	    -19.15360118	      9.43285977	    -12.24034151	      7.90517045	      3.51999495	     -1.75427225	    -12.11584367	      4.39295671	     26.14236075	     45.91265540	      0.00000000	      0.00000000	     13.62508111	    -14.41058024	     -2.40890771	     95.29517770	     48.34002479	      0.00000000	      0.00000000
     50.30178571	     -5.13123908	     -7.73317134	      0.20838947	      0.94248365	      0.91695754	      0.48796763	     21.32710571	      4.63620829	    -14.22517703	     22.57105808	     22.57105808	      8.39297113	     -4.04683932	     -2.80922702	     25.88206091	    -14.68905443	      1.81080222	     68.63502474	     68.63502474	      2.62621406	    -19.22870873	     10.59716727	    -12.29009176	      7.80785358	      3.47600894	      0.31465543	    -12.20124565	      4.48525269	     26.99340104	     45.88990347	      0.00000000	      0.00000000	     12.23461140	    -14.02397508	     -2.30356339	     92.74538657	     48.27608541	      0.00000000	      0.00000000
     50.31285714	     -5.17400292	     -7.71729944	      0.25251411	      0.94209116	      0.91800563	      0.48962863	     20.54957426	      4.79445074	    -14.30329367	     22.02244175	     22.02244175	      8.66900475	     -3.64556547	     -3.02514145	     27.86494361	    -14.58976355	      2.54136029	     70.80371456	     70.80371456	      2.84482420	    -19.23641650	     15.64435812	    -12.10624856	      7.63016201	      3.89710200	      1.80320017	    -12.66278654	      6.32325761	     28.49018871	     45.72759155	      0.00000000	      0.00000000	     12.03541549	    -13.07881253	     -2.53751218	     87.19197753	     48.18383836	      0.00000000	      0.00000000
     50.32392857	     -5.16380617	     -7.75394163	      0.27955142	      0.94165053	      0.91911552	      0.49138706	     19.72345795	      5.05717836	    -14.25100505	     21.45737705	     21.45737705	      8.89064172	     -3.47435854	     -2.99418846	     29.54365763	    -14.76143642	      2.94450540	     72.31816602	     72.31816602	      2.12303907	    -19.29649099	     16.26526908	    -12.12663130	      7.45640755	      3.91384537	      3.83542726	    -12.85566727	      6.80134201	     29.78624613	     45.66689934	      0.00000000	      0.00000000	     11.19487041	    -12.44427944	     -2.92966167	     83.05539364	     48.12266266	      0.00000000	      0.00000000
     50.33500000	     -5.19944083	     -7.81066900	      0.32372645	      0.94115349	      0.92006455	      0.49306676	     18.94824781	      5.34697613	    -14.15268325	     20.88169271	     20.88169271	      9.12073868	     -3.39297449	     -2.93870123	     31.25338904	    -14.91329471	      3.34662583	     73.54565058	     73.54565058	      1.99366046	    -19.34839306	     17.18804952	    -12.06965565	      7.30463903	      4.03603368	      5.71152988	    -13.14696090	      7.37661813	     31.41511578	     45.58583419	      0.00000000	      0.00000000	     10.56591126	    -11.83060053	     -3.05407957	     78.49528117	     48.03783936	      0.00000000	      0.00000000
     50.34607143	     -5.22139404	     -7.86968265	      0.39172358	      0.94062988	      0.92096223	      0.49461946	     18.16591832	      5.63689967	    -14.01497539	     20.31348755	     20.31348755	      9.34346055	     -3.40059900	     -2.84778108	     32.89751214	    -15.06300554	      3.67222262	     74.44007941	     74.44007941	      2.28280924	    -19.39963509	     18.14402333	    -12.02994058	      7.16079338	      4.12609506	      7.57185420	    -13.48870469	      7.96489464	     33.34358519	     45.49289663	      0.00000000	      0.00000000	     10.03700212	    -11.25926048	     -3.14351065	     73.63242105	     47.94812546	      0.00000000	      0.00000000
     50.35714286	     -5.23751460	     -7.95406977	      0.53254466	      0.94005611	      0.92179592	      0.49602004	     17.33590512	      5.94504973	    -13.92111755	     19.64647186	     19.64647186	      9.53978020	     -3.41049273	     -2.70904202	     34.49844786	    -15.21797828	      3.97642373	     74.98754782	     74.98754782	      2.71733566	    -19.45309639	     18.66768484	    -12.00365841	      7.03344602	      3.64573521	      9.86072526	    -13.51321090	      8.15930560	     35.18622597	     45.42788671	      0.00000000	      0.00000000	      8.96992906	    -11.23632442	     -3.06744289	     69.74961173	     47.86636186	      0.00000000	      0.00000000
     50.36821429	     -5.28488118	     -8.03476672	      0.65545388	      0.93937217	      0.92249020	      0.49722031	     16.61295957	      6.23179560	    -13.76381573	     19.10824314	     19.10824314	      9.76668306	     -3.54169200	     -2.58239936	     36.10926357	    -15.33722968	      4.20316183	     75.26660995	     75.26660995	      3.69801818	    -19.49350623	     20.20863443	    -11.92445014	      6.96165904	      4.30610204	     11.24178350	    -14.34839400	      9.29432739	     37.83523227	     45.27846344	      0.00000000	      0.00000000	      9.55662418	    -10.06475892	     -3.43142193	     62.88496405	     47.77515411	      0.00000000	      0.00000000
     50.37928571	     -5.28631220	     -8.10947167	      0.84139557	      0.93867584	      0.92316417	      0.49819517	     15.82132840	      6.49216533	    -13.66779145	     18.52515702	     18.52515702	      9.99473800	     -3.62172667	     -2.43471630	     37.59081724	    -15.43065261	      4.37022136	     75.18928261	     75.18928261	      4.59821839	    -19.53328470	     21.17240241	    -11.92147814	      6.87545481	      4.40540359	     12.94156004	    -14.99406138	     10.23507292	     40.81960293	     45.13913777	      0.00000000	      0.00000000	      9.48870993	     -9.56312933	     -3.41194152	     57.25281166	     47.67445720	      0.00000000	      0.00000000
     50.39035714	     -5.26043124	     -8.20426335	      1.08233268	      0.93798445	      0.92375144	      0.49894513	     14.96781705	      6.75129848	    -13.66162329	     17.87624143	     17.87624143	     10.20451832	     -3.62972780	     -2.30540701	     38.96293371	    -15.50365448	      4.51397151	     74.77670164	     74.77670164	      5.31150650	    -19.56510111	     21.47317958	    -11.95657603	      6.81216975	      3.77138160	     15.35935123	    -14.94256114	     10.34395968	     42.91943126	     45.07516404	      0.00000000	      0.00000000	      8.29634719	     -9.67667572	     -3.29154492	     53.80926462	     47.60111481	      0.00000000	      0.00000000
     50.40142857	     -5.27903951	     -8.24017583	      1.28831406	      0.93713516	      0.92418691	      0.49938940	     14.24487095	      6.91840389	    -13.57350751	     17.37000325	     17.37000325	     10.44885061	     -3.68262826	     -2.23115606	     40.30074015	    -15.45242122	      4.58106105	     74.10666774	     74.10666774	      6.24500100	    -19.58344887	     22.53951747	    -11.91883516	      6.74892160	      4.36247506	     16.81360906	    -16.11662041	     11.83108789	     46.05829066	     44.91512609	      0.00000000	      0.00000000	      9.33608436	     -8.68650837	     -3.64636657	     46.20247836	     47.52602393	      0.00000000	      0.00000000
